<svg width="20" height="21" viewBox="0 0 20 21" fill="none" xmlns="http://www.w3.org/2000/svg">
<path d="M10 0.8125C4.64844 0.8125 0.3125 5.14844 0.3125 10.5C0.3125 15.8516 4.64844 20.1875 10 20.1875C15.3516 20.1875 19.6875 15.8516 19.6875 10.5C19.6875 5.14844 15.3516 0.8125 10 0.8125ZM14.4141 9.83594C14.8047 10.2266 14.8047 10.8125 14.4141 11.1641L9.14062 16.4766C8.78906 16.8281 8.16406 16.8281 7.8125 16.4766L7.14844 15.8125C6.79688 15.4609 6.79688 14.8359 7.14844 14.4844L11.1328 10.5L7.14844 6.55469C6.79688 6.20312 6.79688 5.57812 7.14844 5.22656L7.8125 4.5625C8.16406 4.21094 8.78906 4.21094 9.14062 4.5625L14.4141 9.83594Z" fill="white"/>
</svg>
