<svg width="20" height="21" viewBox="0 0 20 21" fill="none" xmlns="http://www.w3.org/2000/svg">
<path d="M10 20.1875C15.3516 20.1875 19.6875 15.8516 19.6875 10.5C19.6875 5.14844 15.3516 0.8125 10 0.8125C4.64844 0.8125 0.3125 5.14844 0.3125 10.5C0.3125 15.8516 4.64844 20.1875 10 20.1875ZM5.54688 11.1641C5.15625 10.8125 5.15625 10.2266 5.54688 9.83594L10.8203 4.5625C11.1719 4.21094 11.7969 4.21094 12.1484 4.5625L12.8125 5.22656C13.1641 5.57812 13.1641 6.16406 12.8125 6.55469L8.82812 10.5L12.8125 14.4844C13.1641 14.8359 13.1641 15.4609 12.8125 15.8125L12.1484 16.4766C11.7969 16.8281 11.2109 16.8281 10.8203 16.4766L5.54688 11.1641Z" fill="white"/>
</svg>
